<?xml version="1.0" standalone="no"?>
<!DOCTYPE svg PUBLIC "-//W3C//DTD SVG 20010904//EN"
 "http://www.w3.org/TR/2001/REC-SVG-20010904/DTD/svg10.dtd">
<svg version="1.0" xmlns="http://www.w3.org/2000/svg"
 width="1024.000000pt" height="600.000000pt" viewBox="0 0 1024.000000 600.000000"
 preserveAspectRatio="xMidYMid meet">

<g transform="translate(0.000000,1024.000000) scale(0.100000,-0.100000)"
fill="currentColor" stroke="none">
<path d="M2932 7794 c-33 -23 -52 -67 -52 -119 0 -66 22 -112 64 -132 30 -14
36 -22 36 -49 0 -39 -69 -684 -74 -700 -3 -6 -17 -15 -33 -18 -50 -13 -206
-92 -278 -141 -139 -95 -267 -223 -281 -281 -11 -42 13 -102 46 -119 57 -30
85 -21 163 53 94 88 153 130 254 181 165 82 358 117 560 100 383 -32 721 -268
893 -623 92 -190 126 -354 118 -578 l-5 -137 61 -5 c33 -3 171 -10 306 -16
135 -6 284 -13 333 -16 l87 -6 0 48 c1 65 32 205 64 284 83 204 269 390 466
465 113 43 168 55 280 61 149 9 271 -12 421 -71 15 -6 18 9 24 129 12 223 -13
302 -120 372 -68 45 -144 70 -305 99 -229 42 -681 104 -968 134 -150 16 -277
32 -282 37 -5 5 -71 176 -146 379 -75 204 -141 379 -146 389 -9 16 -6 23 16
39 55 40 72 124 40 193 -32 67 2 64 -796 64 -640 0 -726 -2 -746 -16z m1260
-285 c4 -8 80 -214 169 -459 116 -323 162 -462 166 -506 3 -34 2 -127 -2 -207
l-7 -145 -51 -7 c-44 -5 -54 -4 -65 12 -7 10 -35 52 -62 95 -101 155 -259 297
-435 393 l-85 47 0 394 0 394 173 2 c206 4 189 5 199 -13z m-572 -350 c0 -317
-2 -360 -15 -355 -62 23 -195 40 -322 41 l-143 0 5 30 c3 17 14 116 25 220 11
105 25 243 32 308 l12 117 203 0 203 0 0 -361z"/>
<path d="M3110 6404 c-257 -47 -449 -154 -596 -332 -160 -194 -234 -418 -221
-676 18 -405 280 -745 662 -862 84 -26 103 -28 270 -28 200 -1 264 11 411 79
252 116 453 349 528 615 142 503 -168 1042 -679 1180 -78 21 -310 36 -375 24z
m225 -409 c265 -47 455 -270 455 -534 0 -169 -49 -290 -162 -401 -171 -170
-429 -209 -642 -98 -74 39 -191 154 -229 225 -145 272 -40 622 227 753 74 37
183 67 246 69 14 0 61 -6 105 -14z"/>
<path d="M3133 5734 c-60 -22 -128 -86 -160 -152 -23 -47 -28 -70 -27 -132 0
-121 55 -214 158 -268 44 -23 63 -27 141 -27 107 0 146 16 216 92 61 65 83
131 77 227 -7 108 -57 191 -146 243 -38 23 -59 27 -131 30 -59 2 -99 -2 -128
-13z"/>
<path d="M5790 5887 c-246 -73 -419 -248 -481 -487 -18 -72 -21 -102 -16 -210
4 -103 9 -138 32 -199 77 -209 225 -357 427 -428 107 -38 301 -44 413 -14 204
56 364 190 451 378 52 111 67 188 61 328 -3 102 -8 132 -34 201 -86 230 -259
383 -495 439 -97 23 -266 19 -358 -8z m334 -327 c73 -28 152 -101 191 -176 27
-54 30 -68 30 -159 0 -82 -4 -109 -22 -148 -31 -66 -115 -152 -182 -184 -50
-25 -67 -28 -156 -28 -89 0 -106 3 -156 28 -153 75 -237 253 -195 415 56 219
276 332 490 252z"/>
<path d="M5902 5360 c-68 -42 -92 -165 -44 -229 45 -61 150 -80 213 -38 128
85 68 287 -85 287 -34 0 -62 -7 -84 -20z"/>
</g>
</svg>
