<?xml version="1.0" standalone="no"?>
<!DOCTYPE svg PUBLIC "-//W3C//DTD SVG 20010904//EN"
 "http://www.w3.org/TR/2001/REC-SVG-20010904/DTD/svg10.dtd">
<svg version="1.0" xmlns="http://www.w3.org/2000/svg"
 width="1024.000000pt" height="1024.000000pt" viewBox="0 0 1024.000000 1024.000000"
 preserveAspectRatio="xMidYMid meet">

<g transform="translate(0.000000,1024.000000) scale(0.100000,-0.100000)"
fill="currentColor" stroke="none">
<path d="M2932 7794 c-33 -23 -52 -67 -52 -119 0 -66 22 -112 64 -132 30 -14
36 -22 36 -49 0 -39 -69 -684 -74 -700 -3 -6 -17 -15 -33 -18 -50 -13 -206
-92 -278 -141 -139 -95 -267 -223 -281 -281 -11 -42 13 -102 46 -119 57 -30
85 -21 163 53 94 88 153 130 254 181 165 82 358 117 560 100 383 -32 721 -268
893 -623 92 -190 126 -354 118 -578 l-5 -137 61 -5 c33 -3 171 -10 306 -16
135 -6 284 -13 333 -16 l87 -6 0 48 c1 65 32 205 64 284 83 204 269 390 466
465 113 43 168 55 280 61 149 9 271 -12 421 -71 15 -6 18 9 24 129 12 223 -13
302 -120 372 -68 45 -144 70 -305 99 -229 42 -681 104 -968 134 -150 16 -277
32 -282 37 -5 5 -71 176 -146 379 -75 204 -141 379 -146 389 -9 16 -6 23 16
39 55 40 72 124 40 193 -32 67 2 64 -796 64 -640 0 -726 -2 -746 -16z m1260
-285 c4 -8 80 -214 169 -459 116 -323 162 -462 166 -506 3 -34 2 -127 -2 -207
l-7 -145 -51 -7 c-44 -5 -54 -4 -65 12 -7 10 -35 52 -62 95 -101 155 -259 297
-435 393 l-85 47 0 394 0 394 173 2 c206 4 189 5 199 -13z m-572 -350 c0 -317
-2 -360 -15 -355 -62 23 -195 40 -322 41 l-143 0 5 30 c3 17 14 116 25 220 11
105 25 243 32 308 l12 117 203 0 203 0 0 -361z"/>
<path d="M3110 6404 c-257 -47 -449 -154 -596 -332 -160 -194 -234 -418 -221
-676 18 -405 280 -745 662 -862 84 -26 103 -28 270 -28 200 -1 264 11 411 79
252 116 453 349 528 615 142 503 -168 1042 -679 1180 -78 21 -310 36 -375 24z
m225 -409 c265 -47 455 -270 455 -534 0 -169 -49 -290 -162 -401 -171 -170
-429 -209 -642 -98 -74 39 -191 154 -229 225 -145 272 -40 622 227 753 74 37
183 67 246 69 14 0 61 -6 105 -14z"/>
<path d="M3133 5734 c-60 -22 -128 -86 -160 -152 -23 -47 -28 -70 -27 -132 0
-121 55 -214 158 -268 44 -23 63 -27 141 -27 107 0 146 16 216 92 61 65 83
131 77 227 -7 108 -57 191 -146 243 -38 23 -59 27 -131 30 -59 2 -99 -2 -128
-13z"/>
<path d="M5790 5887 c-246 -73 -419 -248 -481 -487 -18 -72 -21 -102 -16 -210
4 -103 9 -138 32 -199 77 -209 225 -357 427 -428 107 -38 301 -44 413 -14 204
56 364 190 451 378 52 111 67 188 61 328 -3 102 -8 132 -34 201 -86 230 -259
383 -495 439 -97 23 -266 19 -358 -8z m334 -327 c73 -28 152 -101 191 -176 27
-54 30 -68 30 -159 0 -82 -4 -109 -22 -148 -31 -66 -115 -152 -182 -184 -50
-25 -67 -28 -156 -28 -89 0 -106 3 -156 28 -153 75 -237 253 -195 415 56 219
276 332 490 252z"/>
<path d="M5902 5360 c-68 -42 -92 -165 -44 -229 45 -61 150 -80 213 -38 128
85 68 287 -85 287 -34 0 -62 -7 -84 -20z"/>
<path d="M1661 4208 c-9 -24 -119 -328 -351 -968 -73 -201 -135 -371 -137
-378 -4 -10 28 -12 152 -10 l157 3 48 135 47 135 259 3 259 2 47 -137 46 -138
160 -3 160 -2 -135 367 c-74 203 -181 499 -240 658 -58 160 -111 305 -119 323
l-13 32 -166 0 c-162 0 -166 0 -174 -22z m287 -618 c33 -96 64 -183 67 -192 7
-17 -6 -18 -177 -18 l-184 0 90 273 91 272 27 -80 c14 -44 53 -159 86 -255z"/>
<path d="M6071 4208 c-22 -60 -231 -636 -326 -898 -58 -162 -119 -330 -136
-372 -16 -43 -29 -80 -29 -83 0 -3 68 -4 152 -3 l151 3 47 135 48 135 267 0
267 0 47 -135 46 -135 158 -3 c86 -1 157 0 157 3 0 2 -7 22 -15 42 -8 21 -80
220 -160 443 -81 223 -186 513 -235 645 l-88 240 -171 3 c-170 2 -171 2 -180
-20z m264 -533 c46 -132 88 -252 94 -267 l11 -28 -191 0 c-178 0 -191 1 -186
18 42 136 183 537 186 528 2 -6 41 -119 86 -251z"/>
<path d="M2875 3857 c-162 -42 -275 -164 -321 -347 -24 -94 -15 -261 18 -351
45 -121 128 -212 244 -266 54 -26 69 -28 174 -28 103 0 121 3 171 26 30 14 73
44 94 65 l38 39 -6 -80 c-9 -114 -23 -154 -71 -201 -99 -99 -295 -83 -361 30
-15 25 -33 46 -40 46 -16 0 -239 -50 -243 -55 -3 -2 9 -32 26 -67 54 -115 167
-201 308 -234 93 -22 265 -14 349 15 131 46 233 150 277 279 22 66 23 78 26
590 l3 522 -136 0 -135 0 0 -51 0 -51 -46 41 c-25 22 -71 50 -102 61 -70 26
-198 34 -267 17z m280 -236 c80 -37 124 -117 132 -240 9 -133 -32 -228 -117
-271 -129 -66 -274 -5 -314 131 -20 67 -20 171 0 238 17 58 72 127 119 147 44
19 133 17 180 -5z"/>
<path d="M4240 3861 c-70 -14 -133 -61 -167 -122 l-18 -34 -3 68 -3 67 -137 0
-137 0 -2 -495 -2 -495 143 0 144 0 4 288 c5 308 11 346 61 400 50 54 171 87
236 64 l31 -11 0 140 0 139 -57 -1 c-32 -1 -74 -4 -93 -8z"/>
<path d="M4833 3855 c-226 -49 -383 -253 -383 -497 0 -269 144 -467 381 -523
83 -19 225 -19 302 1 177 46 310 180 352 355 19 84 19 235 -1 313 -34 134
-136 260 -250 313 -111 50 -273 66 -401 38z m246 -241 c66 -33 103 -83 126
-169 46 -168 -25 -345 -154 -384 -129 -38 -249 26 -286 153 -22 75 -22 187 -1
260 41 141 185 204 315 140z"/>
<path d="M7499 3857 c-64 -18 -132 -60 -168 -104 l-31 -38 0 63 0 62 -140 0
-140 0 0 -695 0 -695 140 0 140 0 0 245 c0 153 4 245 10 245 5 0 17 -11 25
-24 9 -13 44 -39 78 -57 60 -33 65 -34 177 -34 109 0 118 2 181 32 83 41 169
129 210 216 114 244 55 568 -130 709 -34 26 -85 54 -114 63 -74 22 -183 28
-238 12z m116 -236 c50 -23 78 -53 107 -116 20 -43 23 -66 23 -160 0 -94 -3
-117 -24 -163 -13 -28 -39 -65 -57 -82 -92 -81 -258 -59 -316 41 -75 129 -58
361 34 446 57 53 159 68 233 34z"/>
<path d="M8638 3856 c-58 -16 -118 -54 -155 -101 -15 -19 -30 -35 -33 -35 -3
0 -3 27 -2 60 l4 60 -141 0 -141 0 0 -695 0 -695 140 0 140 0 0 246 0 246 41
-37 c63 -56 120 -78 221 -83 152 -8 272 47 360 163 156 206 141 577 -31 758
-100 106 -262 151 -403 113z m133 -239 c36 -19 50 -36 79 -92 34 -66 35 -72
35 -179 0 -95 -3 -118 -23 -161 -41 -90 -85 -122 -179 -131 -50 -5 -65 -2
-113 23 -47 24 -59 37 -85 87 -28 56 -30 66 -30 180 0 112 2 125 27 171 29 56
70 99 108 114 47 19 133 13 181 -12z"/>
</g>
</svg>
